<?xml version="1.0" standalone="no"?>
<!DOCTYPE svg PUBLIC "-//W3C//DTD SVG 20010904//EN"
 "http://www.w3.org/TR/2001/REC-SVG-20010904/DTD/svg10.dtd">
<svg version="1.0" xmlns="http://www.w3.org/2000/svg"
 width="402.000000pt" height="402.000000pt" viewBox="0 0 402.000000 402.000000"
 preserveAspectRatio="xMidYMid meet">
<metadata>
Created by potrace 1.11, written by Peter Selinger 2001-2013
</metadata>
<g transform="translate(0.000000,402.000000) scale(0.100000,-0.100000)"
fill="#000000" stroke="none">
<path d="M1859 4016 c-2 -2 -33 -6 -69 -10 -56 -5 -113 -14 -255 -42 -91 -18
-334 -108 -432 -161 -26 -14 -66 -35 -89 -47 -229 -124 -478 -352 -656 -601
-128 -180 -251 -455 -305 -685 -22 -95 -20 -83 -43 -265 -10 -82 -5 -384 9
-470 25 -161 52 -268 102 -409 115 -324 323 -621 594 -852 292 -248 671 -413
1050 -458 111 -13 407 -14 490 -2 17 3 48 7 71 11 68 10 88 14 186 39 221 58
414 144 612 274 80 53 76 50 171 129 280 232 490 536 614 886 40 115 74 250
86 348 4 30 10 73 15 96 8 48 5 421 -4 468 -4 17 -15 78 -26 136 -20 107 -84
326 -101 344 -5 5 -9 15 -9 23 0 33 -150 309 -219 402 -340 463 -806 747
-1363 831 -69 10 -421 23 -429 15z"/>
</g>
</svg>
